ply
format ascii 1.0
element vertex 165
property float x
property float y
element face 1
property list int int vertex_indices
end_header
484 1 
555 2 
567 3 
575 4 
596 7 
602 8 
622 12 
638 16 
657 21 
670 25 
692 33 
719 44 
732 50 
756 62 
783 78 
794 85 
809 95 
821 104 
834 114 
856 133 
869 145 
877 153 
890 167 
899 177 
904 183 
912 193 
930 217 
938 228 
953 252 
969 282 
975 294 
980 305 
992 335 
995 343 
1001 361 
1008 386 
1016 423 
1019 442 
1021 459 
1022 469 
1023 483 
1023 541 
1021 567 
1018 590 
1014 612 
1010 630 
1008 638 
1002 660 
999 670 
997 676 
992 690 
986 705 
974 732 
962 756 
957 765 
945 785 
938 796 
923 817 
910 834 
899 847 
893 854 
879 869 
869 879 
847 899 
834 910 
821 920 
817 923 
810 928 
800 935 
791 941 
770 954 
765 957 
754 963 
724 978 
703 987 
684 994 
650 1005 
622 1012 
607 1015 
590 1018 
567 1021 
537 1023 
482 1023 
468 1022 
442 1019 
430 1017 
407 1013 
402 1012 
390 1009 
375 1005 
361 1001 
340 994 
329 990 
300 978 
266 961 
239 945 
228 938 
214 928 
202 919 
189 909 
177 899 
169 892 
146 870 
124 846 
119 840 
104 821 
96 810 
84 792 
73 775 
67 765 
54 740 
48 728 
36 700 
30 684 
25 670 
18 646 
12 622 
8 602 
6 589 
5 582 
3 565 
1 543 
0 512 
1 484 
2 469 
5 443 
6 437 
11 408 
15 390 
19 374 
28 346 
33 332 
37 321 
42 309 
46 300 
63 266 
76 244 
79 239 
89 224 
99 210 
110 195 
124 178 
131 170 
150 150 
165 136 
178 124 
190 114 
195 110 
215 95 
228 86 
239 79 
254 70 
266 63 
288 52 
307 43 
329 34 
351 26 
375 19 
382 17 
408 11 
417 9 
441 5 
457 3 
511 1 
530 1 
165 0 1 2 3 4 5 6 7 8 9 10 11 12 13 14 15 16 17 18 19 20 21 22 23 24 25 26 27 28 29 30 31 32 33 34 35 36 37 38 39 40 41 42 43 44 45 46 47 48 49 50 51 52 53 54 55 56 57 58 59 60 61 62 63 64 65 66 67 68 69 70 71 72 73 74 75 76 77 78 79 80 81 82 83 84 85 86 87 88 89 90 91 92 93 94 95 96 97 98 99 100 101 102 103 104 105 106 107 108 109 110 111 112 113 114 115 116 117 118 119 120 121 122 123 124 125 126 127 128 129 130 131 132 133 134 135 136 137 138 139 140 141 142 143 144 145 146 147 148 149 150 151 152 153 154 155 156 157 158 159 160 161 162 163 164 
