ply
format ascii 1.0
element vertex 143
property float x
property float y
element face 1
property list int int vertex_indices
end_header
484 1 
548 2 
567 3 
575 4 
596 7 
602 8 
621 12 
634 15 
638 16 
670 25 
692 33 
719 44 
732 50 
756 62 
794 85 
810 96 
834 114 
856 133 
869 145 
890 167 
899 177 
912 193 
930 217 
938 228 
948 244 
951 249 
956 258 
969 282 
973 290 
992 335 
995 343 
1001 361 
1006 379 
1007 383 
1010 398 
1015 424 
1019 445 
1021 459 
1023 483 
1023 541 
1021 566 
1018 590 
1014 612 
1010 630 
1009 634 
999 670 
992 690 
988 700 
974 732 
969 742 
958 763 
948 780 
940 792 
927 811 
910 834 
899 847 
893 854 
874 874 
872 876 
848 898 
834 910 
810 928 
800 935 
791 941 
765 957 
754 963 
724 978 
703 987 
684 994 
641 1007 
630 1010 
611 1014 
600 1016 
567 1021 
537 1023 
490 1023 
471 1022 
451 1020 
430 1017 
398 1011 
375 1005 
352 998 
340 994 
327 989 
300 978 
266 961 
239 945 
233 941 
214 928 
169 892 
146 870 
118 838 
114 833 
97 811 
87 796 
72 773 
67 765 
48 727 
36 700 
30 684 
23 662 
18 646 
15 634 
12 621 
8 602 
5 582 
3 565 
1 543 
0 512 
1 484 
2 469 
5 444 
6 437 
11 408 
15 390 
20 372 
28 346 
37 321 
42 309 
50 292 
63 266 
79 239 
89 224 
99 210 
110 195 
124 178 
150 150 
165 136 
190 114 
217 94 
236 81 
239 79 
254 70 
270 61 
307 43 
329 34 
351 26 
375 19 
417 9 
441 5 
457 3 
487 1 
530 1 
143 0 1 2 3 4 5 6 7 8 9 10 11 12 13 14 15 16 17 18 19 20 21 22 23 24 25 26 27 28 29 30 31 32 33 34 35 36 37 38 39 40 41 42 43 44 45 46 47 48 49 50 51 52 53 54 55 56 57 58 59 60 61 62 63 64 65 66 67 68 69 70 71 72 73 74 75 76 77 78 79 80 81 82 83 84 85 86 87 88 89 90 91 92 93 94 95 96 97 98 99 100 101 102 103 104 105 106 107 108 109 110 111 112 113 114 115 116 117 118 119 120 121 122 123 124 125 126 127 128 129 130 131 132 133 134 135 136 137 138 139 140 141 142 
